<svg width="25" height="24" viewBox="0 0 25 24" fill="none" xmlns="http://www.w3.org/2000/svg">
<path d="M12.5 10.4V20M12.5 10.4C12.5 8.15979 12.5 7.03969 12.064 6.18404C11.6805 5.43139 11.0686 4.81947 10.316 4.43597C9.46031 4 8.34021 4 6.1 4H5.1C4.53995 4 4.25992 4 4.04601 4.10899C3.85785 4.20487 3.70487 4.35785 3.60899 4.54601C3.5 4.75992 3.5 5.03995 3.5 5.6V16.4C3.5 16.9601 3.5 17.2401 3.60899 17.454C3.70487 17.6422 3.85785 17.7951 4.04601 17.891C4.25992 18 4.53995 18 5.1 18H8.04668C8.58687 18 8.85696 18 9.11814 18.0466C9.34995 18.0879 9.5761 18.1563 9.79191 18.2506C10.035 18.3567 10.2598 18.5065 10.7092 18.8062L12.5 20M12.5 10.4C12.5 8.15979 12.5 7.03969 12.936 6.18404C13.3195 5.43139 13.9314 4.81947 14.684 4.43597C15.5397 4 16.6598 4 18.9 4H19.9C20.4601 4 20.7401 4 20.954 4.10899C21.1422 4.20487 21.2951 4.35785 21.391 4.54601C21.5 4.75992 21.5 5.03995 21.5 5.6V16.4C21.5 16.9601 21.5 17.2401 21.391 17.454C21.2951 17.6422 21.1422 17.7951 20.954 17.891C20.7401 18 20.4601 18 19.9 18H16.9533C16.4131 18 16.143 18 15.8819 18.0466C15.65 18.0879 15.4239 18.1563 15.2081 18.2506C14.965 18.3567 14.7402 18.5065 14.2908 18.8062L12.5 20" stroke="#626262" stroke-width="1.5" stroke-linecap="round" stroke-linejoin="round"/>
</svg>
