<svg width="32" height="46" viewBox="0 0 32 46" fill="none" xmlns="http://www.w3.org/2000/svg">
<path d="M17 3H12.2C11.0799 3 10.5198 3 10.092 3.21799C9.71569 3.40973 9.40973 3.71569 9.21799 4.09202C9 4.51984 9 5.0799 9 6.2V17.8C9 18.9201 9 19.4802 9.21799 19.908C9.40973 20.2843 9.71569 20.5903 10.092 20.782C10.5198 21 11.0799 21 12.2 21H16M17 3L23 9M17 3V7.4C17 7.96005 17 8.24008 17.109 8.45399C17.2049 8.64215 17.3578 8.79513 17.546 8.89101C17.7599 9 18.0399 9 18.6 9H23M23 9V10M20 14H25V21L22.5 19.611L20 21V14Z" stroke="#626262" stroke-width="1.5" stroke-linecap="round" stroke-linejoin="round"/>
<path d="M4.47597 42.88C3.25997 42.88 2.31197 42.604 1.63197 42.052C0.959969 41.508 0.623969 40.744 0.623969 39.76C0.623969 39.4 0.671969 39.004 0.767969 38.572C0.871969 38.14 1.01197 37.716 1.18797 37.3L2.09997 37.576C1.94797 37.904 1.82397 38.24 1.72797 38.584C1.63197 38.928 1.58397 39.24 1.58397 39.52C1.58397 40.128 1.80397 40.596 2.24397 40.924C2.68397 41.26 3.29197 41.428 4.06797 41.428H4.89597C5.34397 41.428 5.74397 41.388 6.09597 41.308C6.45597 41.236 6.75997 41.132 7.00797 40.996C7.26397 40.868 7.45997 40.716 7.59597 40.54C7.73197 40.372 7.80797 40.192 7.82397 40L5.06397 39.46V38.176H5.65197C6.14797 38.176 6.49997 38.112 6.70797 37.984C6.91597 37.848 7.01997 37.6 7.01997 37.24C7.01997 37.104 7.00797 36.932 6.98397 36.724C6.96797 36.516 6.92797 36.24 6.86397 35.896L6.68397 34.852L7.72797 34.684L7.88397 35.728C7.97997 36.368 8.02797 36.872 8.02797 37.24C8.02797 37.856 7.80397 38.312 7.35597 38.608V38.668L7.83597 38.8C8.47597 38.96 8.79597 39.344 8.79597 39.952C8.79597 40.384 8.69597 40.776 8.49597 41.128C8.30397 41.488 8.01997 41.796 7.64397 42.052C7.27597 42.316 6.82397 42.52 6.28797 42.664C5.75997 42.808 5.15597 42.88 4.47597 42.88ZM7.83597 33.472C7.65197 33.472 7.50397 33.416 7.39197 33.304C7.28797 33.192 7.23597 33.02 7.23597 32.788C7.23597 32.548 7.28797 32.376 7.39197 32.272C7.50397 32.16 7.65197 32.104 7.83597 32.104H8.01597C8.19997 32.104 8.34797 32.16 8.45997 32.272C8.57197 32.376 8.62797 32.548 8.62797 32.788C8.62797 33.02 8.57197 33.192 8.45997 33.304C8.34797 33.416 8.19997 33.472 8.01597 33.472H7.83597ZM6.14397 33.472C5.95997 33.472 5.81197 33.416 5.69997 33.304C5.59597 33.192 5.54397 33.02 5.54397 32.788C5.54397 32.548 5.59597 32.376 5.69997 32.272C5.81197 32.16 5.95997 32.104 6.14397 32.104H6.32397C6.50797 32.104 6.65597 32.16 6.76797 32.272C6.87997 32.376 6.93597 32.548 6.93597 32.788C6.93597 33.02 6.87997 33.192 6.76797 33.304C6.65597 33.416 6.50797 33.472 6.32397 33.472H6.14397ZM5.23197 45.364C5.04797 45.364 4.89997 45.308 4.78797 45.196C4.68397 45.084 4.63197 44.912 4.63197 44.68C4.63197 44.44 4.68397 44.264 4.78797 44.152C4.89997 44.048 5.04797 43.996 5.23197 43.996H5.41197C5.59597 43.996 5.74397 44.048 5.85597 44.152C5.96797 44.264 6.02397 44.44 6.02397 44.68C6.02397 44.912 5.96797 45.084 5.85597 45.196C5.74397 45.308 5.59597 45.364 5.41197 45.364H5.23197ZM3.53997 45.364C3.35597 45.364 3.20797 45.308 3.09597 45.196C2.99197 45.084 2.93997 44.912 2.93997 44.68C2.93997 44.44 2.99197 44.264 3.09597 44.152C3.20797 44.048 3.35597 43.996 3.53997 43.996H3.71997C3.90397 43.996 4.05197 44.048 4.16397 44.152C4.27597 44.264 4.33197 44.44 4.33197 44.68C4.33197 44.912 4.27597 45.084 4.16397 45.196C4.05197 45.308 3.90397 45.364 3.71997 45.364H3.53997ZM12.1923 40C11.4083 40 10.8443 39.84 10.5003 39.52C10.1563 39.192 9.98425 38.648 9.98425 37.888V31.12H11.1003V37.78C11.1003 38.116 11.1763 38.344 11.3283 38.464C11.4883 38.584 11.7483 38.644 12.1083 38.644H12.5043V39.712L12.2043 40H12.1923ZM13.8638 39.316C13.6798 39.564 13.4598 39.74 13.2038 39.844C12.9478 39.948 12.6198 40 12.2198 40V38.932L12.5078 38.644C12.8118 38.644 13.0318 38.58 13.1678 38.452C13.3118 38.316 13.4438 38.088 13.5638 37.768L13.8998 36.904C14.0918 36.408 14.3438 36.012 14.6558 35.716C14.9758 35.412 15.4038 35.26 15.9398 35.26C16.5958 35.26 17.0998 35.54 17.4518 36.1C17.8038 36.652 17.9798 37.428 17.9798 38.428V38.896L17.0798 40.216L13.8638 39.316ZM14.4278 38.056L16.9478 38.764V38.428C16.9478 37.86 16.8398 37.416 16.6238 37.096C16.4078 36.776 16.1078 36.616 15.7238 36.616C15.4438 36.616 15.2158 36.7 15.0398 36.868C14.8718 37.028 14.7318 37.252 14.6198 37.54L14.4278 38.056ZM18.5809 39.04L20.5729 38.548L19.5769 32.956L20.6689 32.764L21.6409 38.26C21.9289 38.164 22.1689 38.056 22.3609 37.936C22.5529 37.816 22.7049 37.672 22.8169 37.504C22.9289 37.336 23.0049 37.136 23.0449 36.904C23.0929 36.664 23.1169 36.38 23.1169 36.052V31.12H24.2329V37.696C24.2329 38.328 24.5489 38.644 25.1809 38.644H25.6249V39.712L25.3369 40C24.6169 40 24.0889 39.832 23.7529 39.496C23.4249 39.152 23.2609 38.616 23.2609 37.888V37.564H23.2009C23.0889 38.204 22.9009 38.688 22.6369 39.016C22.3809 39.344 22.0089 39.572 21.5209 39.7L18.9169 40.36L18.5809 39.04ZM25.3331 38.932L25.6211 38.644H26.8931V38.584C26.6611 38.376 26.4691 38.112 26.3171 37.792C26.1731 37.472 26.1011 37.124 26.1011 36.748C26.1011 36.38 26.1651 36.036 26.2931 35.716C26.4211 35.396 26.5931 35.124 26.8091 34.9C27.0331 34.668 27.2931 34.488 27.5891 34.36C27.8931 34.224 28.2211 34.156 28.5731 34.156C29.1011 34.156 29.5491 34.268 29.9171 34.492C30.2931 34.708 30.6011 35.012 30.8411 35.404L29.9531 36.292C29.7611 36.02 29.5451 35.824 29.3051 35.704C29.0731 35.576 28.8011 35.512 28.4891 35.512C28.0411 35.512 27.6931 35.624 27.4451 35.848C27.2051 36.064 27.0851 36.364 27.0851 36.748C27.0851 37.18 27.2611 37.532 27.6131 37.804C27.9731 38.068 28.4411 38.2 29.0171 38.2C29.4091 38.2 29.8051 38.144 30.2051 38.032L31.2611 37.756L31.5851 38.992L29.9291 39.46C29.5611 39.572 29.2131 39.664 28.8851 39.736C28.5651 39.8 28.2291 39.852 27.8771 39.892C27.5331 39.932 27.1571 39.96 26.7491 39.976C26.3411 39.992 25.8691 40 25.3331 40V38.932Z" fill="#626262"/>
</svg>
