<svg width="25" height="24" viewBox="0 0 25 24" fill="none" xmlns="http://www.w3.org/2000/svg">
<path d="M21.1425 2.70094C20.9148 2.52077 20.6253 2.45855 20.3456 2.52733L18.4103 3.00885C17.7988 2.85162 17.0116 2.80904 16.0488 2.8811C13.9607 3.04161 12.9523 3.68036 12.5001 4.40755C12.048 3.68034 11.0397 3.0416 8.95149 2.8811C7.98871 2.80904 7.20158 2.8549 6.59002 3.00885L4.65469 2.52733C4.37496 2.45854 4.08548 2.52078 3.8578 2.70094C3.63013 2.8811 3.5 3.1497 3.5 3.44123V16.6323C3.5 17.068 3.79273 17.4414 4.20907 17.5463L6.08259 18.0081V20.5599C6.08259 20.8907 6.24847 21.1921 6.53144 21.3624C6.68106 21.4541 6.84694 21.5 7.01608 21.5C7.16245 21.5 7.31207 21.464 7.44867 21.3919L11.3681 19.3151L12.4219 19.5739C12.448 19.5805 12.474 19.5838 12.5 19.5838C12.526 19.5838 12.552 19.5805 12.5781 19.5739L13.6319 19.3151L17.5513 21.3919C17.6879 21.464 17.8376 21.5 17.9839 21.5C18.1531 21.5 18.3189 21.4541 18.4686 21.3624C18.7515 21.1921 18.9174 20.8907 18.9174 20.5599V18.0081L20.7909 17.5463C21.2073 17.4414 21.5 17.068 21.5 16.6323V3.44123C21.5 3.1497 21.3699 2.88108 21.1422 2.70094H21.1425ZM12.8255 5.59002C12.8255 4.39441 13.9249 3.70324 16.0977 3.53617C17.5679 3.42152 18.5893 3.58858 19.0446 4.01441C19.23 4.18802 19.3178 4.40422 19.3178 4.68264V15.3679C18.6803 14.9093 17.5841 14.7357 16.0489 14.8536C14.3608 14.9847 13.3785 15.4236 12.8256 15.9739L12.8255 5.59002ZM5.68282 4.68266C5.68282 4.40424 5.77064 4.18803 5.95604 4.01443C6.41141 3.5886 7.43275 3.42154 8.90288 3.53619C11.0757 3.70325 12.1751 4.39443 12.1751 5.59004V15.9738C11.6222 15.4235 10.6398 14.9846 8.9518 14.8535C7.41655 14.7356 6.32034 14.9092 5.68292 15.3678L5.68282 4.68266ZM7.1465 20.8121C7.01964 20.8776 6.90906 20.8285 6.87003 20.8023C6.82774 20.7794 6.73342 20.704 6.73342 20.5599V18.1687L10.4155 19.0794L7.1465 20.8121ZM18.2673 20.5599C18.2673 20.704 18.173 20.7794 18.1307 20.8023C18.0917 20.8285 17.9811 20.8776 17.8542 20.8121L14.5853 19.0793L18.2674 18.1687L18.2673 20.5599Z" fill="#226131"/>
</svg>
